<?xml version="1.0" encoding="UTF-8" standalone="no"?><!DOCTYPE svg PUBLIC "-//W3C//DTD SVG 1.1//EN" "http://www.w3.org/Graphics/SVG/1.1/DTD/svg11.dtd"><svg width="100%" height="100%" viewBox="0 0 168 169" version="1.1" xmlns="http://www.w3.org/2000/svg" xmlns:xlink="http://www.w3.org/1999/xlink" xml:space="preserve" xmlns:serif="http://www.serif.com/" style="fill-rule:evenodd;clip-rule:evenodd;stroke-linejoin:round;stroke-miterlimit:1.41421;"><path d="M15.277,12.238c0.116,-0.5 0.635,-0.932 1.558,-1.298c0.922,-0.365 1.874,-0.576 2.855,-0.634c0.98,-0.058 1.816,0.067 2.509,0.375c0.692,0.307 0.884,0.884 0.576,1.73c-0.154,0.423 -0.452,1.125 -0.894,2.105c-0.442,0.981 -0.971,2.144 -1.586,3.49c-0.615,1.345 -1.317,2.807 -2.105,4.383c-0.788,1.577 -1.596,3.172 -2.422,4.787c-0.827,1.615 -1.663,3.172 -2.509,4.672c-0.846,1.499 -1.644,2.845 -2.394,4.037c-0.75,1.192 -1.442,2.173 -2.076,2.942c-0.635,0.769 -1.163,1.192 -1.586,1.269c-0.769,0.192 -1.461,-0.01 -2.077,-0.606c-0.615,-0.596 -1.067,-1.279 -1.355,-2.048c-0.288,-0.769 -0.384,-1.509 -0.288,-2.22c0.096,-0.711 0.471,-1.086 1.124,-1.125c0.423,0 0.962,-0.452 1.615,-1.355c0.654,-0.904 1.356,-2.057 2.105,-3.461c0.75,-1.403 1.5,-2.96 2.25,-4.671c0.75,-1.711 1.451,-3.365 2.105,-4.961c0.654,-1.595 1.211,-3.066 1.673,-4.412c0.461,-1.346 0.769,-2.345 0.922,-2.999Zm17.015,-10.266c1.73,1.115 3.028,2.537 3.893,4.268c0.865,1.73 1.355,3.633 1.471,5.71c0.115,2.076 -0.077,4.268 -0.577,6.575c-0.5,2.307 -1.24,4.585 -2.221,6.834c-0.98,2.25 -2.143,4.384 -3.489,6.402c-1.346,2.019 -2.807,3.807 -4.383,5.364c-1.577,1.558 -3.211,2.788 -4.903,3.692c-1.692,0.903 -3.364,1.355 -5.018,1.355c-1.538,0 -2.701,-0.269 -3.489,-0.808c-0.788,-0.538 -1.298,-1.124 -1.528,-1.759c-0.231,-0.634 -0.231,-1.192 0,-1.672c0.23,-0.481 0.596,-0.664 1.095,-0.548c1.808,0.384 3.615,0.077 5.422,-0.923c1.807,-1 3.489,-2.413 5.047,-4.239c1.557,-1.827 2.922,-3.913 4.095,-6.258c1.172,-2.346 2.009,-4.681 2.508,-7.008c0.5,-2.326 0.596,-4.508 0.289,-6.546c-0.308,-2.038 -1.154,-3.633 -2.538,-4.787c-1.269,-1.038 -2.768,-1.461 -4.499,-1.269c-1.73,0.192 -3.46,0.721 -5.19,1.586c-1.731,0.865 -3.336,1.913 -4.816,3.144c-1.481,1.23 -2.586,2.383 -3.317,3.46c-0.538,0.769 -1.028,1 -1.471,0.692c-0.442,-0.307 -0.72,-0.923 -0.836,-1.845c-0.115,-0.923 -0.029,-2.009 0.26,-3.259c0.288,-1.25 0.894,-2.432 1.817,-3.547c1.153,-1.461 2.653,-2.721 4.498,-3.778c1.846,-1.057 3.816,-1.826 5.912,-2.307c2.096,-0.481 4.191,-0.615 6.287,-0.404c2.095,0.212 3.989,0.837 5.681,1.875Z" style="fill:#cc2328;fill-rule:nonzero;"/><path d="M55.132,21.466c0.384,1.038 0.346,2.192 -0.116,3.461c-0.461,1.269 -1.259,2.451 -2.393,3.547c-1.135,1.096 -2.557,2.009 -4.268,2.739c-1.711,0.731 -3.586,1.077 -5.624,1.039c0.269,0.769 0.817,1.365 1.644,1.788c0.827,0.423 1.798,0.634 2.913,0.634c1.115,0 2.335,-0.202 3.662,-0.606c1.327,-0.403 2.624,-1.047 3.893,-1.932c0.654,-0.423 1.038,-0.538 1.154,-0.346c0.115,0.192 0,0.558 -0.346,1.096c-0.346,0.538 -0.885,1.173 -1.615,1.903c-0.731,0.731 -1.625,1.404 -2.682,2.019c-1.058,0.615 -2.23,1.106 -3.519,1.471c-1.288,0.365 -2.662,0.452 -4.123,0.259c-1.5,-0.192 -2.778,-0.624 -3.836,-1.297c-1.057,-0.673 -1.836,-1.538 -2.336,-2.596c-0.5,-1.057 -0.721,-2.268 -0.663,-3.633c0.058,-1.365 0.433,-2.836 1.125,-4.413c0.653,-1.461 1.49,-2.72 2.509,-3.777c1.019,-1.058 2.105,-1.923 3.258,-2.596c1.154,-0.673 2.336,-1.134 3.547,-1.384c1.212,-0.25 2.336,-0.327 3.374,-0.231c1.039,0.096 1.952,0.385 2.74,0.865c0.788,0.481 1.355,1.144 1.702,1.99Zm-4.384,1.731c-0.307,-0.308 -0.807,-0.385 -1.499,-0.231c-0.693,0.154 -1.433,0.48 -2.221,0.98c-0.788,0.5 -1.548,1.154 -2.278,1.961c-0.731,0.808 -1.307,1.711 -1.73,2.711c1.23,-0.038 2.383,-0.279 3.46,-0.721c1.077,-0.442 1.99,-0.952 2.74,-1.528c0.75,-0.577 1.278,-1.163 1.586,-1.759c0.307,-0.596 0.288,-1.067 -0.058,-1.413Z" style="fill:#cc2328;fill-rule:nonzero;"/><path d="M73.184,7.336c1.154,0.423 1.855,1.095 2.105,2.018c0.25,0.923 0.164,2.009 -0.259,3.259c-0.423,1.25 -1.115,2.615 -2.077,4.095c-0.961,1.48 -2.095,2.989 -3.402,4.528c-1.308,1.538 -2.711,3.056 -4.211,4.556c-1.499,1.5 -2.999,2.884 -4.499,4.153c0,1.192 0.25,2.066 0.75,2.624c0.5,0.557 1.144,0.894 1.932,1.009c0.789,0.116 1.663,0.039 2.625,-0.231c0.961,-0.269 1.903,-0.653 2.826,-1.153c0.807,-0.461 1.153,-0.394 1.038,0.202c-0.115,0.596 -0.567,1.346 -1.355,2.249c-0.789,0.904 -1.846,1.769 -3.173,2.596c-1.326,0.826 -2.778,1.24 -4.354,1.24c-1.308,0 -2.499,-0.385 -3.576,-1.154c-1.077,-0.769 -1.827,-1.826 -2.249,-3.172c-0.462,-1.346 -0.5,-2.999 -0.116,-4.96c0.385,-1.961 1.038,-4.018 1.961,-6.172c0.923,-2.153 2.048,-4.258 3.374,-6.315c1.327,-2.057 2.721,-3.855 4.182,-5.393c1.461,-1.538 2.932,-2.691 4.412,-3.46c1.48,-0.769 2.836,-0.942 4.066,-0.519Zm-10.439,15.803c-0.539,1.192 -0.962,2.307 -1.269,3.345c1.423,-1.423 2.864,-3.009 4.326,-4.758c1.461,-1.75 2.758,-3.413 3.893,-4.989c1.134,-1.577 1.98,-2.932 2.537,-4.066c0.558,-1.135 0.664,-1.798 0.318,-1.99c-0.269,-0.154 -0.741,-0.029 -1.413,0.375c-0.673,0.403 -1.462,1.115 -2.365,2.134c-0.904,1.019 -1.875,2.345 -2.913,3.979c-1.038,1.635 -2.076,3.624 -3.114,5.97Z" style="fill:#cc2328;fill-rule:nonzero;"/><path d="M74.626,20.774c0.308,-0.307 0.788,-0.529 1.442,-0.663c0.654,-0.135 1.288,-0.202 1.903,-0.202c0.615,0 1.125,0.077 1.529,0.231c0.403,0.153 0.49,0.384 0.259,0.692c-1,1.461 -1.874,2.97 -2.624,4.527c-0.75,1.558 -1.394,3.028 -1.932,4.413c-0.577,1.614 -0.51,2.682 0.202,3.201c0.711,0.519 1.932,0.259 3.662,-0.779c0.769,-0.461 1.096,-0.433 0.981,0.086c-0.116,0.52 -0.548,1.173 -1.298,1.961c-0.75,0.789 -1.73,1.558 -2.942,2.308c-1.211,0.749 -2.509,1.124 -3.893,1.124c-1.115,0 -1.913,-0.259 -2.393,-0.778c-0.481,-0.52 -0.75,-1.192 -0.808,-2.019c-0.057,-0.827 0.058,-1.74 0.346,-2.74c0.289,-0.999 0.644,-1.999 1.067,-2.999c0.269,-0.692 0.606,-1.471 1.01,-2.336c0.403,-0.865 0.817,-1.701 1.24,-2.509c0.423,-0.807 0.836,-1.528 1.24,-2.162c0.403,-0.635 0.74,-1.087 1.009,-1.356Zm3.864,-2.999c-0.961,0 -1.538,-0.394 -1.73,-1.182c-0.192,-0.789 -0.115,-1.644 0.231,-2.567c0.346,-0.923 0.903,-1.778 1.672,-2.567c0.769,-0.788 1.673,-1.182 2.711,-1.182c0.692,0 1.192,0.183 1.5,0.548c0.307,0.365 0.48,0.827 0.519,1.384c0.038,0.558 -0.068,1.163 -0.317,1.817c-0.25,0.654 -0.596,1.259 -1.039,1.817c-0.442,0.557 -0.971,1.019 -1.586,1.384c-0.615,0.365 -1.269,0.548 -1.961,0.548Z" style="fill:#cc2328;fill-rule:nonzero;"/><path d="M95.216,29.079c-0.692,0.462 -1.394,0.721 -2.105,0.779c-0.711,0.058 -1.326,-0.019 -1.845,-0.231c-0.52,-0.211 -0.875,-0.499 -1.067,-0.865c-0.193,-0.365 -0.116,-0.74 0.23,-1.124c0.269,-0.308 0.577,-0.654 0.923,-1.039c0.346,-0.384 0.663,-0.769 0.952,-1.153c0.288,-0.385 0.49,-0.74 0.605,-1.067c0.116,-0.327 0.077,-0.606 -0.115,-0.836c-0.346,-0.346 -0.875,-0.443 -1.586,-0.289c-0.711,0.154 -1.452,0.49 -2.221,1.01c-0.769,0.519 -1.509,1.211 -2.22,2.076c-0.712,0.865 -1.24,1.836 -1.586,2.912c-0.462,1.423 -0.385,2.577 0.23,3.461c0.616,0.884 1.529,1.461 2.74,1.73c1.211,0.269 2.624,0.221 4.239,-0.144c1.615,-0.365 3.23,-1.086 4.845,-2.163c0.654,-0.423 1.048,-0.538 1.182,-0.346c0.135,0.192 0.029,0.558 -0.317,1.096c-0.346,0.538 -0.894,1.173 -1.644,1.903c-0.749,0.731 -1.643,1.404 -2.682,2.019c-1.038,0.615 -2.21,1.106 -3.518,1.471c-1.307,0.365 -2.672,0.452 -4.095,0.259c-1.538,-0.192 -2.826,-0.634 -3.864,-1.326c-1.038,-0.692 -1.807,-1.567 -2.307,-2.624c-0.5,-1.058 -0.721,-2.259 -0.663,-3.605c0.057,-1.346 0.432,-2.807 1.124,-4.384c1,-2.191 2.317,-3.931 3.951,-5.219c1.634,-1.288 3.307,-2.144 5.018,-2.567c1.711,-0.423 3.297,-0.452 4.758,-0.086c1.461,0.365 2.519,1.105 3.172,2.22c0.385,0.654 0.616,1.356 0.692,2.105c0.077,0.75 0.01,1.5 -0.201,2.25c-0.212,0.749 -0.539,1.451 -0.981,2.105c-0.442,0.654 -0.99,1.211 -1.644,1.672Z" style="fill:#cc2328;fill-rule:nonzero;"/><path d="M103.003,20.774c0.307,-0.307 0.788,-0.529 1.441,-0.663c0.654,-0.135 1.289,-0.202 1.904,-0.202c0.615,0 1.124,0.077 1.528,0.231c0.404,0.153 0.49,0.384 0.26,0.692c-1,1.461 -1.875,2.97 -2.625,4.527c-0.749,1.558 -1.393,3.028 -1.932,4.413c-0.576,1.614 -0.509,2.682 0.202,3.201c0.712,0.519 1.932,0.259 3.663,-0.779c0.769,-0.461 1.095,-0.433 0.98,0.086c-0.115,0.52 -0.548,1.173 -1.298,1.961c-0.749,0.789 -1.73,1.558 -2.941,2.308c-1.211,0.749 -2.509,1.124 -3.893,1.124c-1.115,0 -1.913,-0.259 -2.394,-0.778c-0.48,-0.52 -0.75,-1.192 -0.807,-2.019c-0.058,-0.827 0.057,-1.74 0.346,-2.74c0.288,-0.999 0.644,-1.999 1.067,-2.999c0.269,-0.692 0.605,-1.471 1.009,-2.336c0.404,-0.865 0.817,-1.701 1.24,-2.509c0.423,-0.807 0.837,-1.528 1.24,-2.162c0.404,-0.635 0.74,-1.087 1.01,-1.356Zm3.864,-2.999c-0.961,0 -1.538,-0.394 -1.73,-1.182c-0.193,-0.789 -0.116,-1.644 0.23,-2.567c0.346,-0.923 0.904,-1.778 1.673,-2.567c0.769,-0.788 1.673,-1.182 2.711,-1.182c0.692,0 1.192,0.183 1.499,0.548c0.308,0.365 0.481,0.827 0.519,1.384c0.039,0.558 -0.067,1.163 -0.317,1.817c-0.25,0.654 -0.596,1.259 -1.038,1.817c-0.442,0.557 -0.971,1.019 -1.586,1.384c-0.615,0.365 -1.269,0.548 -1.961,0.548Z" style="fill:#cc2328;fill-rule:nonzero;"/><path d="M119.556,17.833c0.346,0 0.644,0.182 0.894,0.548c0.25,0.365 0.413,0.778 0.49,1.24c0.077,0.461 0.038,0.894 -0.116,1.297c-0.153,0.404 -0.48,0.644 -0.98,0.721c-1.038,0.231 -2.028,0.808 -2.97,1.731c-0.942,0.922 -1.711,1.932 -2.307,3.028c-0.596,1.095 -0.952,2.134 -1.067,3.114c-0.116,0.981 0.134,1.644 0.749,1.99c0.846,0.461 1.76,0.394 2.74,-0.202c0.981,-0.596 1.865,-1.423 2.653,-2.48c0.788,-1.057 1.394,-2.201 1.817,-3.432c0.423,-1.23 0.519,-2.249 0.288,-3.057c-0.115,-0.384 -0.057,-0.769 0.173,-1.153c0.231,-0.385 0.548,-0.702 0.952,-0.952c0.404,-0.25 0.856,-0.404 1.355,-0.461c0.5,-0.058 0.923,0.067 1.269,0.375c0.346,0.307 0.808,0.586 1.384,0.836c0.577,0.25 1.212,0.452 1.904,0.606c0.692,0.153 1.403,0.221 2.134,0.201c0.73,-0.019 1.384,-0.144 1.961,-0.374c0.653,-0.27 0.961,-0.202 0.923,0.201c-0.039,0.404 -0.375,0.875 -1.01,1.413c-0.634,0.539 -1.538,1.019 -2.711,1.442c-1.172,0.423 -2.566,0.519 -4.181,0.289c-0.077,1.384 -0.413,2.864 -1.009,4.441c-0.596,1.576 -1.404,3.028 -2.423,4.354c-1.019,1.327 -2.23,2.423 -3.633,3.288c-1.404,0.865 -2.971,1.298 -4.701,1.298c-1.73,0 -3.057,-0.327 -3.98,-0.981c-0.922,-0.654 -1.576,-1.471 -1.961,-2.451c-0.384,-0.981 -0.557,-2.038 -0.519,-3.172c0.039,-1.135 0.193,-2.163 0.462,-3.086c0.307,-1.115 0.836,-2.288 1.586,-3.518c0.75,-1.231 1.644,-2.375 2.682,-3.432c1.038,-1.057 2.172,-1.932 3.403,-2.624c1.23,-0.692 2.48,-1.038 3.749,-1.038Z" style="fill:#cc2328;fill-rule:nonzero;"/><path d="M134.205,19.563c0.308,-0.308 0.789,-0.538 1.442,-0.692c0.654,-0.154 1.288,-0.231 1.904,-0.231c0.615,0 1.124,0.087 1.528,0.26c0.404,0.173 0.49,0.394 0.259,0.663c-0.499,0.73 -1.009,1.548 -1.528,2.451c-0.519,0.904 -1.009,1.817 -1.471,2.74c-0.461,0.923 -0.894,1.817 -1.297,2.682c-0.404,0.865 -0.741,1.643 -1.01,2.336c-0.346,0.884 -0.384,1.528 -0.115,1.932c0.269,0.403 0.673,0.605 1.211,0.605c0.538,0 1.163,-0.211 1.875,-0.634c0.711,-0.423 1.355,-1.038 1.932,-1.846l0.288,-0.692c0.308,-0.692 0.711,-1.538 1.211,-2.538c0.5,-0.999 1.01,-1.97 1.529,-2.912c0.519,-0.942 1.019,-1.798 1.499,-2.567c0.481,-0.769 0.856,-1.288 1.125,-1.557c0.308,-0.308 0.788,-0.538 1.442,-0.692c0.654,-0.154 1.288,-0.231 1.903,-0.231c0.615,0 1.115,0.087 1.5,0.26c0.384,0.173 0.48,0.394 0.288,0.663c-0.5,0.73 -1.009,1.548 -1.528,2.451c-0.519,0.904 -1.029,1.817 -1.529,2.74c-0.5,0.923 -0.951,1.817 -1.355,2.682c-0.404,0.865 -0.721,1.643 -0.952,2.336c-0.615,1.615 -0.557,2.682 0.173,3.201c0.731,0.519 1.961,0.259 3.692,-0.779c0.499,-0.308 0.807,-0.385 0.922,-0.231c0.116,0.154 0.058,0.433 -0.173,0.837c-0.23,0.403 -0.596,0.884 -1.095,1.441c-0.5,0.558 -1.106,1.087 -1.817,1.587c-0.712,0.499 -1.5,0.932 -2.365,1.297c-0.865,0.366 -1.759,0.548 -2.682,0.548c-1.423,0 -2.336,-0.394 -2.74,-1.182c-0.403,-0.788 -0.528,-1.779 -0.374,-2.97c-0.808,1.076 -1.817,2.037 -3.028,2.883c-1.212,0.846 -2.605,1.269 -4.182,1.269c-1.115,0 -1.913,-0.259 -2.393,-0.778c-0.481,-0.52 -0.741,-1.192 -0.779,-2.019c-0.039,-0.827 0.086,-1.74 0.375,-2.74c0.288,-0.999 0.644,-1.999 1.067,-2.999c0.269,-0.692 0.653,-1.538 1.153,-2.538c0.5,-0.999 1.01,-1.97 1.529,-2.912c0.519,-0.942 1.019,-1.798 1.499,-2.567c0.481,-0.769 0.837,-1.288 1.067,-1.557Z" style="fill:#cc2328;fill-rule:nonzero;"/><path d="M160.736,13.911c0.769,-0.269 1.384,-0.183 1.846,0.259c0.461,0.442 0.769,1 0.923,1.673c0.154,0.673 0.163,1.336 0.029,1.99c-0.135,0.653 -0.395,1.057 -0.779,1.211c-0.538,0.231 -1.029,0.586 -1.471,1.067c-0.442,0.48 -0.788,1.048 -1.038,1.701c-0.25,0.654 -0.423,1.356 -0.519,2.105c-0.096,0.75 -0.067,1.51 0.086,2.279c0.193,1.153 0.279,2.451 0.26,3.893c-0.019,1.442 -0.26,2.816 -0.721,4.124c1.73,-0.193 3.211,-0.866 4.441,-2.019c0.423,-0.385 0.721,-0.51 0.894,-0.375c0.173,0.135 0.173,0.423 0,0.865c-0.173,0.442 -0.509,1 -1.009,1.673c-0.5,0.673 -1.202,1.326 -2.105,1.961c-0.904,0.634 -2.009,1.211 -3.317,1.73c-1.307,0.519 -2.826,0.856 -4.556,1.009l-0.346,0c-1.077,0.116 -2.009,0.048 -2.798,-0.201c-0.788,-0.25 -1.441,-0.587 -1.961,-1.01c-0.519,-0.423 -0.913,-0.913 -1.182,-1.471c-0.269,-0.557 -0.461,-1.086 -0.577,-1.586c-0.077,-0.576 -0.077,-1.038 0,-1.384c0.077,-0.346 0.289,-0.673 0.635,-0.98c0.692,-0.539 1.374,-1.24 2.047,-2.106c0.673,-0.865 1.346,-1.816 2.019,-2.854c0.673,-1.039 1.317,-2.115 1.932,-3.23c0.615,-1.115 1.211,-2.192 1.788,-3.23c0.385,-1.615 1.038,-3.057 1.961,-4.326c0.923,-1.269 2.096,-2.192 3.518,-2.768Zm-11.477,20.071c0.653,0.384 1.326,0.529 2.018,0.432c0.693,-0.096 1.317,-0.413 1.875,-0.951c0.557,-0.538 1.009,-1.259 1.355,-2.163c0.346,-0.904 0.5,-1.971 0.462,-3.201c-1,1.346 -1.952,2.49 -2.855,3.432c-0.904,0.942 -1.856,1.759 -2.855,2.451Z" style="fill:#cc2328;fill-rule:nonzero;"/><g><path d="M12.024,55.26c-0.387,0 -0.727,0.074 -1.021,0.221c-0.294,0.147 -0.538,0.34 -0.731,0.579c-0.193,0.239 -0.34,0.501 -0.441,0.786c-0.101,0.285 -0.152,0.575 -0.152,0.869c0,0.551 0.17,1.016 0.511,1.393c0.34,0.376 0.841,0.565 1.503,0.565l9.156,0c0.11,0 0.211,0.032 0.303,0.096c0.092,0.065 0.147,0.161 0.166,0.29l-0.055,1.158c-0.019,0.276 -0.06,0.511 -0.125,0.704c-0.064,0.193 -0.183,0.344 -0.358,0.455c-0.175,0.11 -0.414,0.188 -0.717,0.234c-0.304,0.046 -0.694,0.069 -1.172,0.069c-0.111,1.489 -0.391,2.776 -0.841,3.861c-0.451,1.085 -1.048,1.981 -1.793,2.689c-0.745,0.708 -1.632,1.236 -2.661,1.586c-1.03,0.349 -2.17,0.524 -3.42,0.524c-2.262,0 -3.949,-0.487 -5.061,-1.462c-1.112,-0.974 -1.669,-2.344 -1.669,-4.109c0,-1.324 0.304,-2.413 0.911,-3.268c0.606,-0.855 1.461,-1.54 2.564,-2.055c-0.57,-0.423 -1.011,-0.956 -1.323,-1.599c-0.313,-0.644 -0.469,-1.324 -0.469,-2.041c0,-0.717 0.161,-1.411 0.482,-2.083c0.322,-0.671 0.796,-1.268 1.421,-1.792c0.625,-0.524 1.402,-0.947 2.33,-1.269c0.929,-0.322 2.009,-0.482 3.241,-0.482c0.956,0 1.769,0.096 2.44,0.289c0.672,0.193 1.223,0.46 1.655,0.8c0.432,0.34 0.745,0.735 0.938,1.186c0.193,0.45 0.289,0.933 0.289,1.448c0,0.937 -0.303,1.636 -0.91,2.096c-0.606,0.459 -1.489,0.689 -2.647,0.689c-0.202,0 -0.322,-0.018 -0.359,-0.055c-0.037,-0.037 -0.083,-0.129 -0.138,-0.276c-0.073,-0.827 -0.285,-1.383 -0.634,-1.668c-0.349,-0.285 -0.754,-0.428 -1.213,-0.428Zm-3.475,9.708c0,0.644 0.216,1.195 0.648,1.655c0.432,0.459 1.034,0.689 1.806,0.689c0.864,0 1.6,-0.358 2.206,-1.075c0.607,-0.717 1.012,-1.903 1.214,-3.558l-3.613,0c-0.735,0 -1.296,0.23 -1.682,0.689c-0.386,0.46 -0.579,0.993 -0.579,1.6Z" style="fill:#cc2328;fill-rule:nonzero;"/><path d="M27.716,67.671c0,-1.655 0.745,-2.951 2.234,-3.889c1.489,-0.938 3.686,-1.443 6.591,-1.517c0.019,-0.202 0.032,-0.372 0.042,-0.51c0.009,-0.138 0.013,-0.308 0.013,-0.51c0,-0.588 -0.11,-1.057 -0.331,-1.407c-0.22,-0.349 -0.68,-0.524 -1.378,-0.524c-0.387,0 -0.699,0.056 -0.938,0.166c-0.239,0.11 -0.432,0.262 -0.579,0.455c-0.147,0.193 -0.267,0.427 -0.359,0.703c-0.092,0.276 -0.175,0.579 -0.248,0.91c-0.037,0.166 -0.12,0.271 -0.248,0.317c-0.129,0.046 -0.331,0.069 -0.607,0.069c-1.875,0 -2.813,-0.708 -2.813,-2.123c0,-0.57 0.133,-1.113 0.4,-1.627c0.266,-0.515 0.662,-0.961 1.186,-1.338c0.524,-0.377 1.181,-0.676 1.972,-0.896c0.79,-0.221 1.71,-0.331 2.758,-0.331c2.04,0 3.52,0.423 4.44,1.268c0.919,0.846 1.379,2.041 1.379,3.586c0,0.202 -0.023,0.565 -0.069,1.089c-0.046,0.524 -0.101,1.076 -0.166,1.655c-0.064,0.579 -0.119,1.126 -0.165,1.641c-0.046,0.515 -0.069,0.873 -0.069,1.075c0,0.46 0.083,0.786 0.248,0.979c0.166,0.193 0.354,0.327 0.565,0.4c0.212,0.074 0.4,0.129 0.566,0.166c0.165,0.037 0.248,0.128 0.248,0.276c0,0.404 -0.055,0.818 -0.165,1.241c-0.111,0.422 -0.29,0.809 -0.538,1.158c-0.248,0.349 -0.589,0.634 -1.021,0.855c-0.432,0.22 -0.96,0.331 -1.585,0.331c-0.883,0 -1.545,-0.212 -1.986,-0.635c-0.441,-0.422 -0.736,-1.011 -0.883,-1.765c-0.441,0.644 -1.015,1.205 -1.723,1.683c-0.708,0.478 -1.632,0.717 -2.772,0.717c-0.552,0 -1.071,-0.065 -1.558,-0.193c-0.487,-0.129 -0.91,-0.34 -1.269,-0.635c-0.358,-0.294 -0.643,-0.675 -0.855,-1.144c-0.211,-0.469 -0.317,-1.034 -0.317,-1.696Zm8.577,-3.144c-0.478,0 -0.947,0.037 -1.406,0.11c-0.46,0.074 -0.869,0.189 -1.228,0.345c-0.358,0.156 -0.648,0.363 -0.868,0.62c-0.221,0.258 -0.331,0.57 -0.331,0.938c0,0.423 0.133,0.717 0.399,0.883c0.267,0.165 0.557,0.248 0.869,0.248c0.294,0 0.589,-0.065 0.883,-0.193c0.294,-0.129 0.556,-0.327 0.786,-0.593c0.23,-0.267 0.427,-0.593 0.593,-0.979c0.165,-0.386 0.266,-0.846 0.303,-1.379Z" style="fill:#cc2328;fill-rule:nonzero;"/><path d="M58.136,61.521c-0.037,0.551 -0.083,1.149 -0.138,1.792c-0.055,0.644 -0.111,1.292 -0.166,1.945c-0.055,0.652 -0.105,1.291 -0.151,1.916c-0.046,0.625 -0.088,1.177 -0.125,1.655c-0.036,0.478 -0.068,0.873 -0.096,1.186c-0.028,0.313 -0.041,0.478 -0.041,0.496c-0.019,0.221 -0.065,0.368 -0.138,0.442c-0.074,0.073 -0.23,0.11 -0.469,0.11l-0.993,0c-0.993,0 -1.687,-0.234 -2.082,-0.703c-0.396,-0.469 -0.593,-1.172 -0.593,-2.11c0,-0.11 0.014,-0.386 0.041,-0.827c0.028,-0.442 0.065,-0.97 0.111,-1.586c0.045,-0.616 0.096,-1.301 0.151,-2.055c0.055,-0.754 0.111,-1.508 0.166,-2.261l-3.834,0c-0.037,0.551 -0.083,1.149 -0.138,1.792c-0.055,0.644 -0.11,1.292 -0.165,1.945c-0.055,0.652 -0.106,1.291 -0.152,1.916c-0.046,0.625 -0.087,1.177 -0.124,1.655c-0.037,0.478 -0.069,0.873 -0.096,1.186c-0.028,0.313 -0.042,0.478 -0.042,0.496c-0.018,0.221 -0.064,0.368 -0.138,0.442c-0.073,0.073 -0.23,0.11 -0.469,0.11l-0.992,0c-0.497,0 -0.915,-0.037 -1.255,-0.11c-0.34,-0.074 -0.616,-0.212 -0.828,-0.414c-0.211,-0.202 -0.363,-0.487 -0.455,-0.855c-0.092,-0.368 -0.138,-0.846 -0.138,-1.434c0.037,-0.717 0.092,-1.453 0.166,-2.206c0.037,-0.644 0.087,-1.361 0.152,-2.152c0.064,-0.79 0.124,-1.581 0.179,-2.371l-1.324,0c-0.202,0 -0.303,-0.101 -0.303,-0.304l0.082,-1.489c0.019,-0.221 0.051,-0.446 0.097,-0.676c0.046,-0.229 0.129,-0.432 0.248,-0.606c0.12,-0.175 0.299,-0.322 0.538,-0.442c0.239,-0.119 0.561,-0.188 0.965,-0.206c0,-0.148 0.009,-0.249 0.028,-0.304c0.11,-1.195 0.367,-2.202 0.772,-3.02c0.404,-0.818 0.915,-1.48 1.531,-1.985c0.616,-0.506 1.323,-0.869 2.123,-1.09c0.8,-0.22 1.641,-0.331 2.524,-0.331c0.754,0 1.42,0.055 1.999,0.166c0.579,0.11 1.09,0.266 1.531,0.469c0.551,-0.478 1.199,-0.819 1.944,-1.021c0.745,-0.202 1.586,-0.303 2.524,-0.303c0.919,0 1.705,0.082 2.358,0.248c0.652,0.165 1.181,0.395 1.585,0.689c0.405,0.295 0.699,0.644 0.883,1.048c0.184,0.405 0.276,0.837 0.276,1.297c0,0.956 -0.299,1.636 -0.897,2.04c-0.597,0.405 -1.402,0.607 -2.413,0.607c-0.276,0 -0.464,-0.023 -0.565,-0.069c-0.101,-0.046 -0.152,-0.151 -0.152,-0.317c0,-0.607 -0.055,-1.085 -0.165,-1.434c-0.111,-0.349 -0.414,-0.524 -0.91,-0.524c-0.368,0 -0.681,0.11 -0.938,0.331c-0.258,0.221 -0.469,0.51 -0.634,0.869c-0.166,0.358 -0.29,0.767 -0.373,1.227c-0.082,0.46 -0.151,0.928 -0.207,1.407l3.172,0c0.294,0 0.441,0.128 0.441,0.386l-0.11,1.489c-0.037,0.551 -0.189,0.997 -0.455,1.337c-0.267,0.341 -0.814,0.511 -1.641,0.511l-1.682,0Zm-5.571,-6.757c-0.386,0 -0.722,0.078 -1.007,0.234c-0.285,0.157 -0.524,0.373 -0.717,0.648c-0.193,0.276 -0.345,0.598 -0.455,0.966c-0.11,0.367 -0.202,0.763 -0.276,1.186l3.806,0l0.11,-1.104c0,-0.588 -0.101,-1.057 -0.303,-1.406c-0.202,-0.35 -0.588,-0.524 -1.158,-0.524Z" style="fill:#cc2328;fill-rule:nonzero;"/><path d="M70.297,71.339c-1.268,0 -2.321,-0.179 -3.157,-0.538c-0.837,-0.359 -1.503,-0.85 -2,-1.475c-0.496,-0.626 -0.846,-1.356 -1.048,-2.193c-0.202,-0.837 -0.303,-1.733 -0.303,-2.689c0,-1.103 0.133,-2.183 0.4,-3.24c0.266,-1.058 0.721,-2 1.365,-2.827c0.643,-0.828 1.494,-1.494 2.551,-2c1.057,-0.505 2.376,-0.758 3.957,-0.758c2.317,0 3.976,0.565 4.979,1.696c1.002,1.131 1.503,2.716 1.503,4.757c0,0.57 -0.042,1.2 -0.125,1.889c-0.082,0.69 -0.239,1.375 -0.468,2.055c-0.23,0.68 -0.543,1.342 -0.938,1.986c-0.395,0.643 -0.896,1.213 -1.503,1.71c-0.607,0.496 -1.338,0.891 -2.193,1.186c-0.855,0.294 -1.861,0.441 -3.02,0.441Zm1.297,-12.052c-0.699,0 -1.255,0.179 -1.669,0.538c-0.414,0.358 -0.726,0.79 -0.938,1.296c-0.211,0.505 -0.349,1.039 -0.413,1.599c-0.065,0.561 -0.097,1.035 -0.097,1.421c0,1.213 0.193,2.105 0.579,2.675c0.386,0.57 0.938,0.855 1.655,0.855c0.644,0 1.172,-0.202 1.586,-0.607c0.414,-0.404 0.735,-0.892 0.965,-1.462c0.23,-0.57 0.386,-1.167 0.469,-1.792c0.083,-0.625 0.124,-1.149 0.124,-1.572c0,-0.92 -0.17,-1.641 -0.51,-2.165c-0.34,-0.524 -0.924,-0.786 -1.751,-0.786Z" style="fill:#cc2328;fill-rule:nonzero;"/><path d="M89.52,62.486c-0.11,0 -0.234,-0.005 -0.372,-0.014c-0.138,-0.009 -0.272,-0.027 -0.4,-0.055c-0.129,-0.028 -0.239,-0.064 -0.331,-0.11c-0.092,-0.046 -0.138,-0.106 -0.138,-0.18c0,-0.239 0.009,-0.459 0.028,-0.661c0.018,-0.203 0.027,-0.414 0.027,-0.635c0,-0.404 -0.055,-0.735 -0.165,-0.993c-0.111,-0.257 -0.331,-0.386 -0.662,-0.386c-0.515,0 -0.943,0.336 -1.283,1.007c-0.34,0.671 -0.556,1.678 -0.648,3.02c-0.037,0.588 -0.087,1.255 -0.151,1.999c-0.065,0.745 -0.125,1.462 -0.18,2.151c-0.055,0.69 -0.101,1.301 -0.138,1.834c-0.036,0.534 -0.055,0.883 -0.055,1.048c0,0.184 -0.064,0.322 -0.193,0.414c-0.129,0.092 -0.266,0.138 -0.414,0.138l-0.992,0c-0.57,0 -1.035,-0.06 -1.393,-0.179c-0.359,-0.12 -0.644,-0.29 -0.855,-0.51c-0.212,-0.221 -0.359,-0.492 -0.441,-0.814c-0.083,-0.322 -0.124,-0.694 -0.124,-1.117c0,-0.276 0.013,-0.666 0.041,-1.172c0.028,-0.506 0.078,-1.204 0.152,-2.096c0.073,-0.892 0.16,-2.023 0.262,-3.392c0.101,-1.37 0.225,-3.066 0.372,-5.089c0.037,-0.533 0.23,-0.799 0.579,-0.799l1.076,0c0.514,0 0.947,0.055 1.296,0.165c0.349,0.11 0.634,0.262 0.855,0.455c0.22,0.193 0.381,0.418 0.482,0.676c0.102,0.257 0.171,0.524 0.207,0.8c0.221,-0.423 0.483,-0.786 0.786,-1.09c0.304,-0.303 0.621,-0.551 0.952,-0.744c0.331,-0.194 0.671,-0.331 1.02,-0.414c0.35,-0.083 0.671,-0.124 0.965,-0.124c0.35,0 0.704,0.064 1.062,0.193c0.359,0.129 0.685,0.322 0.979,0.579c0.294,0.257 0.529,0.588 0.704,0.993c0.174,0.404 0.262,0.882 0.262,1.434c0,0.496 -0.074,0.965 -0.221,1.406c-0.147,0.442 -0.359,0.832 -0.634,1.173c-0.276,0.34 -0.612,0.606 -1.007,0.799c-0.395,0.193 -0.832,0.29 -1.31,0.29Z" style="fill:#cc2328;fill-rule:nonzero;"/><path d="M98.869,71.339c-0.717,0 -1.402,-0.129 -2.054,-0.386c-0.653,-0.258 -1.223,-0.662 -1.71,-1.214c-0.487,-0.551 -0.874,-1.25 -1.159,-2.096c-0.285,-0.846 -0.427,-1.866 -0.427,-3.061c0,-0.533 0.037,-1.126 0.11,-1.779c0.074,-0.653 0.203,-1.31 0.386,-1.972c0.184,-0.662 0.442,-1.305 0.773,-1.93c0.331,-0.625 0.749,-1.182 1.254,-1.669c0.506,-0.487 1.113,-0.878 1.821,-1.172c0.708,-0.294 1.539,-0.441 2.496,-0.441c0.919,0 1.659,0.161 2.22,0.482c0.56,0.322 0.914,0.878 1.061,1.669c0.037,-0.717 0.074,-1.342 0.111,-1.875c0.037,-0.534 0.069,-1.03 0.096,-1.49c0.028,-0.459 0.06,-0.919 0.097,-1.379c0.037,-0.459 0.073,-0.983 0.11,-1.572c0.019,-0.404 0.064,-0.643 0.138,-0.717c0.037,-0.036 0.083,-0.059 0.138,-0.069c0.055,-0.009 0.156,-0.013 0.303,-0.013l1.076,0c0.551,0 1.011,0.064 1.379,0.193c0.368,0.128 0.662,0.303 0.882,0.524c0.221,0.22 0.377,0.473 0.469,0.758c0.092,0.285 0.138,0.584 0.138,0.896c0,0 -0.018,0.23 -0.055,0.69c-0.037,0.459 -0.083,1.071 -0.138,1.834c-0.055,0.763 -0.119,1.632 -0.193,2.606c-0.074,0.974 -0.147,1.981 -0.221,3.02c-0.073,1.039 -0.147,2.068 -0.22,3.089c-0.074,1.02 -0.147,1.958 -0.221,2.813c-0.073,0.855 -0.133,1.59 -0.179,2.206c-0.046,0.616 -0.078,1.025 -0.097,1.227c-0.036,0.221 -0.082,0.368 -0.138,0.442c-0.055,0.073 -0.211,0.11 -0.468,0.11l-0.993,0c-0.386,0 -0.75,-0.032 -1.09,-0.097c-0.34,-0.064 -0.634,-0.174 -0.882,-0.33c-0.248,-0.157 -0.441,-0.368 -0.579,-0.635c-0.138,-0.266 -0.207,-0.611 -0.207,-1.034c-0.331,0.699 -0.832,1.269 -1.503,1.71c-0.671,0.441 -1.512,0.662 -2.524,0.662Zm2.4,-12.052c-0.938,0 -1.632,0.409 -2.083,1.227c-0.45,0.818 -0.675,1.917 -0.675,3.296c0,0.478 0.032,0.947 0.096,1.406c0.065,0.46 0.18,0.874 0.345,1.241c0.165,0.368 0.391,0.662 0.676,0.883c0.285,0.22 0.648,0.331 1.089,0.331c0.791,0 1.453,-0.386 1.986,-1.159c0.533,-0.772 0.8,-1.985 0.8,-3.64c0,-0.46 -0.028,-0.905 -0.083,-1.338c-0.055,-0.432 -0.166,-0.813 -0.331,-1.144c-0.166,-0.331 -0.395,-0.598 -0.69,-0.8c-0.294,-0.202 -0.671,-0.303 -1.13,-0.303Z" style="fill:#cc2328;fill-rule:nonzero;"/><path d="M109.763,67.671c0,-1.655 0.745,-2.951 2.234,-3.889c1.489,-0.938 3.686,-1.443 6.591,-1.517c0.019,-0.202 0.032,-0.372 0.042,-0.51c0.009,-0.138 0.013,-0.308 0.013,-0.51c0,-0.588 -0.11,-1.057 -0.331,-1.407c-0.22,-0.349 -0.68,-0.524 -1.378,-0.524c-0.387,0 -0.699,0.056 -0.938,0.166c-0.239,0.11 -0.432,0.262 -0.579,0.455c-0.147,0.193 -0.267,0.427 -0.359,0.703c-0.092,0.276 -0.175,0.579 -0.248,0.91c-0.037,0.166 -0.12,0.271 -0.248,0.317c-0.129,0.046 -0.331,0.069 -0.607,0.069c-1.875,0 -2.813,-0.708 -2.813,-2.123c0,-0.57 0.133,-1.113 0.4,-1.627c0.266,-0.515 0.662,-0.961 1.186,-1.338c0.524,-0.377 1.181,-0.676 1.972,-0.896c0.79,-0.221 1.71,-0.331 2.758,-0.331c2.04,0 3.52,0.423 4.44,1.268c0.919,0.846 1.379,2.041 1.379,3.586c0,0.202 -0.023,0.565 -0.069,1.089c-0.046,0.524 -0.101,1.076 -0.166,1.655c-0.064,0.579 -0.119,1.126 -0.165,1.641c-0.046,0.515 -0.069,0.873 -0.069,1.075c0,0.46 0.083,0.786 0.248,0.979c0.166,0.193 0.354,0.327 0.565,0.4c0.212,0.074 0.4,0.129 0.566,0.166c0.165,0.037 0.248,0.128 0.248,0.276c0,0.404 -0.055,0.818 -0.165,1.241c-0.111,0.422 -0.29,0.809 -0.538,1.158c-0.248,0.349 -0.589,0.634 -1.021,0.855c-0.432,0.22 -0.96,0.331 -1.585,0.331c-0.883,0 -1.545,-0.212 -1.986,-0.635c-0.441,-0.422 -0.736,-1.011 -0.883,-1.765c-0.441,0.644 -1.016,1.205 -1.723,1.683c-0.708,0.478 -1.632,0.717 -2.772,0.717c-0.552,0 -1.071,-0.065 -1.558,-0.193c-0.488,-0.129 -0.91,-0.34 -1.269,-0.635c-0.358,-0.294 -0.643,-0.675 -0.855,-1.144c-0.211,-0.469 -0.317,-1.034 -0.317,-1.696Zm8.577,-3.144c-0.478,0 -0.947,0.037 -1.406,0.11c-0.46,0.074 -0.869,0.189 -1.228,0.345c-0.358,0.156 -0.648,0.363 -0.868,0.62c-0.221,0.258 -0.331,0.57 -0.331,0.938c0,0.423 0.133,0.717 0.399,0.883c0.267,0.165 0.557,0.248 0.869,0.248c0.294,0 0.589,-0.065 0.883,-0.193c0.294,-0.129 0.556,-0.327 0.786,-0.593c0.23,-0.267 0.427,-0.593 0.593,-0.979c0.165,-0.386 0.266,-0.846 0.303,-1.379Z" style="fill:#cc2328;fill-rule:nonzero;"/><path d="M132.433,71.339c-1.416,0 -2.537,-0.207 -3.365,-0.621c-0.827,-0.413 -1.452,-0.933 -1.875,-1.558c-0.423,-0.625 -0.69,-1.301 -0.8,-2.027c-0.11,-0.726 -0.165,-1.393 -0.165,-1.999c0,-0.24 0.023,-0.708 0.069,-1.407c0.046,-0.699 0.105,-1.508 0.179,-2.427c0.073,-0.919 0.147,-1.898 0.22,-2.937c0.074,-1.039 0.148,-2.023 0.221,-2.951c0.074,-0.929 0.133,-1.751 0.179,-2.468c0.046,-0.717 0.069,-1.214 0.069,-1.49c0,-0.404 0.028,-0.639 0.083,-0.703c0.055,-0.064 0.221,-0.096 0.496,-0.096l1.076,0c0.552,0 1.011,0.064 1.379,0.193c0.368,0.128 0.662,0.303 0.883,0.524c0.22,0.22 0.376,0.473 0.468,0.758c0.092,0.285 0.138,0.593 0.138,0.924c0,0.312 -0.032,0.919 -0.096,1.82c-0.065,0.901 -0.143,1.958 -0.235,3.172c0.478,-0.828 1.021,-1.439 1.628,-1.834c0.606,-0.396 1.406,-0.593 2.399,-0.593c1.673,0 2.955,0.551 3.847,1.654c0.892,1.104 1.338,2.749 1.338,4.937c0,0.57 -0.042,1.195 -0.124,1.876c-0.083,0.68 -0.23,1.355 -0.442,2.027c-0.211,0.671 -0.505,1.323 -0.882,1.958c-0.377,0.634 -0.869,1.19 -1.476,1.668c-0.606,0.478 -1.337,0.864 -2.192,1.159c-0.855,0.294 -1.862,0.441 -3.02,0.441Zm1.241,-12.052c-0.662,0 -1.181,0.174 -1.558,0.524c-0.377,0.349 -0.667,0.772 -0.869,1.268c-0.202,0.497 -0.331,1.025 -0.386,1.586c-0.055,0.561 -0.083,1.053 -0.083,1.476c0,1.268 0.175,2.174 0.524,2.716c0.35,0.543 0.874,0.814 1.572,0.814c0.662,0 1.181,-0.207 1.558,-0.621c0.377,-0.413 0.662,-0.905 0.855,-1.475c0.193,-0.57 0.318,-1.149 0.373,-1.738c0.055,-0.588 0.082,-1.048 0.082,-1.379c0,-1.029 -0.156,-1.815 -0.468,-2.358c-0.313,-0.542 -0.846,-0.813 -1.6,-0.813Z" style="fill:#cc2328;fill-rule:nonzero;"/><path d="M145.864,71.311c-1.14,0 -1.958,-0.303 -2.455,-0.91c-0.496,-0.607 -0.744,-1.609 -0.744,-3.006c0,-0.221 0.014,-0.496 0.041,-0.827c0.028,-0.331 0.064,-0.759 0.11,-1.283c0.046,-0.524 0.106,-1.172 0.18,-1.944c0.073,-0.772 0.151,-1.71 0.234,-2.813c0.083,-1.103 0.175,-2.4 0.276,-3.889c0.101,-1.489 0.207,-3.217 0.317,-5.185c0.018,-0.404 0.064,-0.643 0.138,-0.717c0.055,-0.055 0.202,-0.082 0.441,-0.082l1.076,0c0.551,0 1.011,0.064 1.379,0.193c0.367,0.128 0.662,0.303 0.882,0.524c0.221,0.22 0.377,0.473 0.469,0.758c0.092,0.285 0.138,0.584 0.138,0.896c0,0.368 -0.023,0.897 -0.069,1.586c-0.046,0.69 -0.106,1.466 -0.179,2.331c-0.074,0.864 -0.147,1.765 -0.221,2.702c-0.073,0.938 -0.147,1.834 -0.22,2.689c-0.074,0.855 -0.134,1.623 -0.18,2.303c-0.046,0.68 -0.069,1.195 -0.069,1.545c0,0.478 0.088,0.818 0.262,1.02c0.175,0.202 0.363,0.345 0.566,0.427c0.202,0.083 0.39,0.138 0.565,0.166c0.175,0.027 0.262,0.087 0.262,0.179c0,0.405 -0.046,0.805 -0.138,1.2c-0.092,0.395 -0.257,0.754 -0.496,1.075c-0.239,0.322 -0.566,0.58 -0.979,0.773c-0.414,0.193 -0.943,0.289 -1.586,0.289Z" style="fill:#cc2328;fill-rule:nonzero;"/><path d="M157.364,71.339c-0.809,0 -1.613,-0.101 -2.413,-0.304c-0.8,-0.202 -1.517,-0.551 -2.151,-1.048c-0.634,-0.496 -1.154,-1.158 -1.558,-1.985c-0.405,-0.828 -0.607,-1.866 -0.607,-3.117c0,-0.459 0.037,-1.011 0.11,-1.654c0.074,-0.644 0.216,-1.306 0.428,-1.986c0.211,-0.68 0.505,-1.356 0.882,-2.027c0.377,-0.671 0.869,-1.273 1.476,-1.807c0.607,-0.533 1.342,-0.965 2.206,-1.296c0.864,-0.331 1.894,-0.496 3.089,-0.496c0.956,0 1.765,0.11 2.427,0.331c0.662,0.22 1.195,0.519 1.6,0.896c0.404,0.377 0.698,0.814 0.882,1.31c0.184,0.496 0.276,1.03 0.276,1.6c0,0.845 -0.17,1.562 -0.51,2.151c-0.34,0.588 -0.782,1.08 -1.324,1.475c-0.543,0.396 -1.145,0.704 -1.807,0.924c-0.661,0.221 -1.314,0.391 -1.958,0.51c-0.643,0.12 -1.236,0.193 -1.779,0.221c-0.542,0.028 -0.96,0.041 -1.254,0.041c0,0.35 0.05,0.694 0.151,1.035c0.101,0.34 0.253,0.638 0.455,0.896c0.203,0.257 0.469,0.469 0.8,0.634c0.331,0.166 0.736,0.248 1.214,0.248c0.478,0 0.85,-0.078 1.117,-0.234c0.266,-0.156 0.482,-0.331 0.648,-0.524c0.165,-0.193 0.308,-0.368 0.427,-0.524c0.12,-0.156 0.281,-0.234 0.483,-0.234c0.092,0 0.253,0.023 0.482,0.069c0.23,0.045 0.465,0.142 0.704,0.289c0.239,0.147 0.45,0.349 0.634,0.607c0.184,0.257 0.276,0.588 0.276,0.993c0,0.533 -0.166,0.993 -0.497,1.379c-0.331,0.386 -0.758,0.698 -1.282,0.937c-0.524,0.239 -1.108,0.414 -1.751,0.524c-0.644,0.111 -1.269,0.166 -1.876,0.166Zm0.524,-12.052c-0.404,0 -0.749,0.115 -1.034,0.345c-0.285,0.229 -0.524,0.519 -0.717,0.868c-0.193,0.35 -0.34,0.736 -0.441,1.159c-0.101,0.422 -0.179,0.827 -0.235,1.213c1.14,-0.018 2.064,-0.211 2.772,-0.579c0.708,-0.368 1.062,-0.892 1.062,-1.572c0,-0.368 -0.115,-0.699 -0.345,-0.993c-0.23,-0.294 -0.584,-0.441 -1.062,-0.441Z" style="fill:#cc2328;fill-rule:nonzero;"/></g><g><path d="M3.282,168c-1.178,0 -2.02,-0.231 -2.525,-0.694c-0.505,-0.463 -0.757,-1.126 -0.757,-1.989c0,-0.42 0.031,-1.141 0.094,-2.162c0.063,-1.02 0.148,-2.183 0.253,-3.487c0.105,-1.305 0.21,-2.683 0.315,-4.135c0.106,-1.451 0.211,-2.819 0.316,-4.103c0.105,-1.283 0.189,-2.409 0.252,-3.377c0.064,-0.967 0.095,-1.63 0.095,-1.988c0,-0.316 0.168,-0.473 0.505,-0.473l11.11,0c0.126,0 0.242,0.031 0.347,0.094c0.105,0.063 0.158,0.179 0.158,0.348l-0.127,1.862c-0.042,0.631 -0.215,1.141 -0.52,1.53c-0.305,0.39 -0.931,0.584 -1.878,0.584l-4.356,0l-0.315,4.45l4.481,0c0.127,0 0.242,0.032 0.348,0.095c0.105,0.063 0.157,0.179 0.157,0.347l-0.126,1.862c-0.042,0.632 -0.216,1.142 -0.521,1.531c-0.305,0.389 -0.931,0.584 -1.878,0.584l-2.745,0l-0.348,4.702l6.944,0c0.126,0 0.242,0.037 0.347,0.111c0.105,0.074 0.158,0.184 0.158,0.331l-0.126,1.862c-0.042,0.632 -0.216,1.142 -0.521,1.531c-0.305,0.389 -0.931,0.584 -1.878,0.584l-7.259,0Z" style="fill:#cc2328;fill-rule:nonzero;"/><path d="M23.891,163.297c0.442,-1.472 0.821,-2.766 1.136,-3.882c0.316,-1.115 0.632,-2.261 0.947,-3.44c0.316,-1.178 0.653,-2.504 1.01,-3.976c0.358,-1.473 0.81,-3.304 1.357,-5.492c0.106,-0.4 0.227,-0.658 0.363,-0.773c0.137,-0.116 0.447,-0.174 0.931,-0.174c0.211,0 0.542,0.016 0.995,0.047c0.452,0.032 0.91,0.127 1.372,0.285c0.463,0.157 0.874,0.389 1.231,0.694c0.358,0.305 0.537,0.742 0.537,1.31c0,0.505 -0.142,1.278 -0.426,2.319c-0.284,1.042 -0.647,2.225 -1.089,3.551c-0.442,1.326 -0.931,2.709 -1.468,4.15c-0.536,1.442 -1.067,2.804 -1.593,4.087c-0.526,1.284 -1.005,2.41 -1.436,3.377c-0.432,0.968 -0.753,1.642 -0.963,2.02c-0.232,0.4 -0.642,0.6 -1.231,0.6l-3.314,0c-0.526,0 -0.962,-0.1 -1.31,-0.3c-0.347,-0.2 -0.636,-0.468 -0.868,-0.805c-0.231,-0.336 -0.42,-0.72 -0.568,-1.152c-0.147,-0.431 -0.273,-0.868 -0.378,-1.309c-0.716,-2.988 -1.331,-5.581 -1.847,-7.78c-0.515,-2.199 -0.941,-4.04 -1.278,-5.523c-0.337,-1.484 -0.589,-2.625 -0.757,-3.425c-0.169,-0.799 -0.253,-1.294 -0.253,-1.483c0,-0.232 0.168,-0.405 0.505,-0.521c0.337,-0.116 0.905,-0.173 1.704,-0.173c0.842,0 1.531,0.084 2.068,0.252c0.536,0.168 0.967,0.405 1.294,0.71c0.326,0.305 0.568,0.663 0.726,1.073c0.157,0.411 0.268,0.858 0.331,1.342c0.063,0.357 0.126,0.783 0.189,1.278c0.063,0.494 0.174,1.246 0.332,2.256c0.157,1.01 0.373,2.373 0.647,4.088c0.273,1.714 0.641,3.971 1.104,6.769Z" style="fill:#cc2328;fill-rule:nonzero;"/><path d="M38.757,168c-1.179,0 -2.02,-0.231 -2.525,-0.694c-0.505,-0.463 -0.758,-1.126 -0.758,-1.989c0,-0.42 0.032,-1.141 0.095,-2.162c0.063,-1.02 0.147,-2.183 0.252,-3.487c0.106,-1.305 0.211,-2.683 0.316,-4.135c0.105,-1.451 0.21,-2.819 0.316,-4.103c0.105,-1.283 0.189,-2.409 0.252,-3.377c0.063,-0.967 0.095,-1.63 0.095,-1.988c0,-0.316 0.168,-0.473 0.505,-0.473l11.109,0c0.126,0 0.242,0.031 0.347,0.094c0.106,0.063 0.158,0.179 0.158,0.348l-0.126,1.862c-0.042,0.631 -0.216,1.141 -0.521,1.53c-0.305,0.39 -0.931,0.584 -1.878,0.584l-4.355,0l-0.316,4.45l4.482,0c0.126,0 0.242,0.032 0.347,0.095c0.105,0.063 0.158,0.179 0.158,0.347l-0.126,1.862c-0.042,0.632 -0.216,1.142 -0.521,1.531c-0.305,0.389 -0.931,0.584 -1.878,0.584l-2.746,0l-0.347,4.702l6.943,0c0.127,0 0.242,0.037 0.348,0.111c0.105,0.074 0.157,0.184 0.157,0.331l-0.126,1.862c-0.042,0.632 -0.215,1.142 -0.521,1.531c-0.305,0.389 -0.931,0.584 -1.877,0.584l-7.259,0Z" style="fill:#cc2328;fill-rule:nonzero;"/><path d="M54.569,168c-1.2,0 -2.047,-0.237 -2.541,-0.71c-0.495,-0.474 -0.742,-1.173 -0.742,-2.099c0,-0.252 0.016,-0.678 0.048,-1.278c0.031,-0.6 0.078,-1.31 0.142,-2.131c0.063,-0.82 0.131,-1.72 0.205,-2.698c0.073,-0.978 0.152,-1.973 0.236,-2.982c0.169,-2.126 0.29,-3.851 0.363,-5.177c0.074,-1.325 0.132,-2.367 0.174,-3.124c0.063,-0.947 0.126,-1.552 0.189,-1.815c0.063,-0.263 0.2,-0.394 0.411,-0.394c0.652,0 1.32,-0.016 2.004,-0.048c0.684,-0.031 1.341,-0.068 1.972,-0.11c0.632,-0.042 1.226,-0.079 1.784,-0.111c0.557,-0.031 1.057,-0.047 1.499,-0.047c1.346,0 2.504,0.168 3.471,0.505c0.968,0.337 1.752,0.81 2.352,1.42c0.599,0.61 1.041,1.347 1.325,2.21c0.284,0.862 0.426,1.83 0.426,2.903c0,1.641 -0.326,3.104 -0.978,4.387c-0.652,1.284 -1.694,2.262 -3.125,2.935l2.652,3.788c0.483,0.715 0.852,1.267 1.104,1.657c0.253,0.389 0.379,0.678 0.379,0.868c0,0.147 -0.09,0.352 -0.268,0.615c-0.179,0.263 -0.442,0.526 -0.789,0.789c-0.348,0.263 -0.768,0.489 -1.263,0.679c-0.494,0.189 -1.047,0.284 -1.657,0.284c-0.673,0 -1.257,-0.221 -1.751,-0.663c-0.495,-0.442 -0.937,-1.026 -1.326,-1.752c-0.389,-0.726 -0.726,-1.562 -1.01,-2.509c-0.284,-0.947 -0.552,-1.936 -0.805,-2.967c-0.757,-0.042 -1.378,-0.115 -1.862,-0.221c-0.063,0.926 -0.126,1.81 -0.189,2.652c-0.063,0.841 -0.116,1.593 -0.158,2.256c-0.042,0.663 -0.084,1.21 -0.126,1.641c-0.042,0.432 -0.063,0.689 -0.063,0.774c-0.021,0.168 -0.064,0.289 -0.127,0.363c-0.063,0.073 -0.189,0.11 -0.378,0.11l-1.578,0Zm5.112,-17.99c-0.252,0 -0.536,0.016 -0.852,0.048c-0.315,0.031 -0.652,0.068 -1.01,0.11c-0.042,0.736 -0.089,1.615 -0.142,2.635c-0.052,1.021 -0.121,2.11 -0.205,3.267c0.737,0.168 1.378,0.252 1.925,0.252c0.653,0 1.184,-0.126 1.594,-0.378c0.411,-0.253 0.731,-0.563 0.963,-0.931c0.231,-0.369 0.384,-0.763 0.457,-1.184c0.074,-0.421 0.111,-0.799 0.111,-1.136c0,-0.863 -0.21,-1.526 -0.631,-1.988c-0.421,-0.463 -1.158,-0.695 -2.21,-0.695Z" style="fill:#cc2328;fill-rule:nonzero;"/><path d="M77.893,168c-1.262,0 -2.125,-0.247 -2.588,-0.742c-0.463,-0.494 -0.694,-1.257 -0.694,-2.288c0,-0.358 0.021,-0.936 0.063,-1.736c0.042,-0.799 0.137,-2.041 0.284,-3.724c-0.168,-0.316 -0.316,-0.589 -0.442,-0.82c-0.126,-0.232 -0.252,-0.474 -0.379,-0.726c-0.126,-0.253 -0.263,-0.547 -0.41,-0.884c-0.147,-0.337 -0.337,-0.758 -0.568,-1.263c-0.358,-0.778 -0.763,-1.683 -1.215,-2.714c-0.453,-1.031 -0.889,-2.025 -1.31,-2.982c-0.421,-0.958 -0.773,-1.805 -1.057,-2.541c-0.284,-0.736 -0.426,-1.199 -0.426,-1.389c0,-0.442 0.705,-0.662 2.114,-0.662c0.884,0 1.594,0.089 2.131,0.268c0.536,0.179 0.973,0.421 1.309,0.726c0.337,0.305 0.59,0.663 0.758,1.073c0.168,0.41 0.326,0.847 0.473,1.31c0.19,0.61 0.326,1.062 0.411,1.357c0.084,0.294 0.152,0.536 0.205,0.726c0.052,0.189 0.11,0.373 0.173,0.552c0.063,0.179 0.153,0.458 0.269,0.836c0.115,0.379 0.278,0.905 0.489,1.578c0.21,0.674 0.505,1.599 0.883,2.778c0.611,-1.284 1.1,-2.325 1.468,-3.125c0.368,-0.799 0.689,-1.541 0.963,-2.225c0.273,-0.684 0.531,-1.389 0.773,-2.114c0.242,-0.726 0.552,-1.647 0.931,-2.762c0.126,-0.4 0.258,-0.658 0.394,-0.773c0.137,-0.116 0.353,-0.174 0.647,-0.174c0.106,0 0.395,0.016 0.868,0.047c0.474,0.032 0.968,0.111 1.484,0.237c0.515,0.126 0.983,0.326 1.404,0.6c0.421,0.273 0.631,0.642 0.631,1.104c0,0.358 -0.121,0.863 -0.362,1.515c-0.242,0.653 -0.558,1.384 -0.947,2.194c-0.39,0.81 -0.842,1.667 -1.357,2.572c-0.516,0.905 -1.047,1.789 -1.594,2.651c-0.547,0.863 -1.089,1.657 -1.626,2.383c-0.536,0.726 -1.025,1.32 -1.467,1.783c-0.021,0.505 -0.048,1.105 -0.079,1.799c-0.032,0.695 -0.074,1.384 -0.126,2.068c-0.053,0.683 -0.1,1.304 -0.142,1.862c-0.043,0.557 -0.074,0.941 -0.095,1.152c-0.021,0.168 -0.063,0.289 -0.126,0.363c-0.063,0.073 -0.19,0.11 -0.379,0.11l-1.736,0Z" style="fill:#cc2328;fill-rule:nonzero;"/><path d="M99.607,150.01l-1.199,17.517c-0.021,0.315 -0.137,0.473 -0.347,0.473l-1.736,0c-1.179,0 -2.02,-0.231 -2.525,-0.694c-0.505,-0.463 -0.758,-1.126 -0.758,-1.989c0,-0.315 0.016,-0.789 0.048,-1.42c0.031,-0.631 0.079,-1.373 0.142,-2.225c0.063,-0.852 0.131,-1.778 0.205,-2.777c0.073,-1 0.152,-2.01 0.237,-3.03c0.084,-1.021 0.163,-2.036 0.236,-3.046c0.074,-1.01 0.142,-1.946 0.205,-2.809l-5.049,0c-0.232,0 -0.348,-0.147 -0.348,-0.442l0.095,-1.767c0.021,-0.274 0.069,-0.542 0.142,-0.805c0.074,-0.263 0.195,-0.5 0.363,-0.71c0.168,-0.21 0.384,-0.379 0.647,-0.505c0.263,-0.126 0.584,-0.189 0.963,-0.189l14.108,0c0.126,0 0.241,0.031 0.347,0.094c0.105,0.063 0.157,0.179 0.157,0.348l-0.126,1.862c-0.042,0.631 -0.215,1.141 -0.521,1.53c-0.305,0.39 -0.931,0.584 -1.877,0.584l-3.409,0Z" style="fill:#cc2328;fill-rule:nonzero;"/><path d="M109.833,168c-1.178,0 -2.02,-0.231 -2.525,-0.694c-0.505,-0.463 -0.758,-1.126 -0.758,-1.989c0,-0.42 0.032,-1.141 0.095,-2.162c0.063,-1.02 0.147,-2.183 0.253,-3.487c0.105,-1.305 0.21,-2.683 0.315,-4.135c0.105,-1.451 0.211,-2.819 0.316,-4.103c0.105,-1.283 0.189,-2.409 0.252,-3.377c0.063,-0.967 0.095,-1.63 0.095,-1.988c0,-0.316 0.168,-0.473 0.505,-0.473l1.736,0c1.283,0 2.146,0.273 2.588,0.82c0.442,0.547 0.663,1.357 0.663,2.43c0,0.106 -0.016,0.442 -0.048,1.01c-0.031,0.569 -0.079,1.284 -0.142,2.147c-0.063,0.862 -0.131,1.825 -0.205,2.887c-0.074,1.063 -0.147,2.152 -0.221,3.267c-0.073,1.115 -0.147,2.204 -0.221,3.267c-0.073,1.062 -0.142,2.025 -0.205,2.887c-0.063,0.863 -0.116,1.584 -0.158,2.162c-0.042,0.579 -0.073,0.931 -0.094,1.058c-0.021,0.168 -0.064,0.289 -0.127,0.363c-0.063,0.073 -0.189,0.11 -0.378,0.11l-1.736,0Z" style="fill:#cc2328;fill-rule:nonzero;"/><path d="M136.47,151.178c-0.168,0.505 -0.384,1.162 -0.647,1.973c-0.263,0.81 -0.552,1.699 -0.868,2.666c-0.315,0.968 -0.641,1.994 -0.978,3.078c-0.337,1.083 -0.679,2.141 -1.026,3.172c-0.347,1.031 -0.689,2.014 -1.026,2.95c-0.336,0.937 -0.641,1.752 -0.915,2.446c-0.084,0.169 -0.258,0.3 -0.521,0.395c-0.263,0.095 -0.678,0.142 -1.246,0.142c-0.358,0 -0.726,-0.021 -1.105,-0.063c-0.379,-0.042 -0.731,-0.126 -1.057,-0.253c-0.326,-0.126 -0.61,-0.294 -0.852,-0.505c-0.242,-0.21 -0.426,-0.473 -0.553,-0.789c-0.315,-1.073 -0.615,-2.267 -0.899,-3.582c-0.284,-1.315 -0.563,-2.656 -0.836,-4.024c-0.274,-1.367 -0.542,-2.709 -0.805,-4.024c-0.263,-1.315 -0.532,-2.509 -0.805,-3.582c0,0.295 -0.011,0.8 -0.032,1.515c-0.021,0.715 -0.042,1.546 -0.063,2.493c-0.021,0.947 -0.047,1.968 -0.079,3.062c-0.031,1.094 -0.058,2.162 -0.079,3.203c-0.021,1.042 -0.042,2.009 -0.063,2.904c-0.021,0.894 -0.031,1.625 -0.031,2.193c0,0.631 -0.037,1.031 -0.111,1.2c-0.073,0.168 -0.205,0.252 -0.394,0.252l-1.736,0c-1.199,0 -2.046,-0.237 -2.541,-0.71c-0.494,-0.474 -0.741,-1.173 -0.741,-2.099c0,-0.252 0.015,-0.678 0.047,-1.278c0.032,-0.6 0.079,-1.31 0.142,-2.131c0.063,-0.82 0.131,-1.72 0.205,-2.698c0.074,-0.978 0.153,-1.973 0.237,-2.982c0.105,-1.368 0.194,-2.51 0.268,-3.425c0.074,-0.915 0.132,-1.678 0.174,-2.288c0.042,-0.61 0.079,-1.105 0.11,-1.483c0.032,-0.379 0.053,-0.716 0.063,-1.01c0.011,-0.295 0.021,-0.574 0.032,-0.837c0.01,-0.263 0.016,-0.594 0.016,-0.994c0,-0.168 0.063,-0.289 0.189,-0.363c0.126,-0.073 0.242,-0.11 0.347,-0.11l4.419,0c0.82,0 1.494,0.131 2.02,0.394c0.526,0.263 0.957,0.668 1.294,1.215c0.336,0.547 0.61,1.257 0.82,2.131c0.211,0.873 0.405,1.909 0.584,3.108c0.179,1.2 0.379,2.583 0.6,4.151c0.221,1.567 0.51,3.329 0.868,5.286c0.336,-1.304 0.62,-2.388 0.852,-3.251c0.231,-0.862 0.426,-1.583 0.584,-2.162c0.157,-0.578 0.289,-1.057 0.394,-1.436c0.105,-0.378 0.2,-0.731 0.284,-1.057c0.084,-0.326 0.179,-0.678 0.284,-1.057c0.105,-0.379 0.232,-0.852 0.379,-1.42c0.147,-0.569 0.331,-1.279 0.552,-2.131c0.221,-0.852 0.5,-1.93 0.837,-3.235c0.042,-0.126 0.115,-0.247 0.221,-0.363c0.105,-0.115 0.294,-0.173 0.568,-0.173l4.923,0c0.674,0 1.215,0.068 1.626,0.205c0.41,0.137 0.731,0.331 0.962,0.584c0.232,0.252 0.389,0.563 0.474,0.931c0.084,0.368 0.126,0.794 0.126,1.278c0,0.484 -0.026,1.268 -0.079,2.351c-0.053,1.084 -0.126,2.304 -0.221,3.661c-0.095,1.357 -0.189,2.762 -0.284,4.214c-0.095,1.452 -0.189,2.798 -0.284,4.04c-0.095,1.241 -0.174,2.293 -0.237,3.156c-0.063,0.862 -0.105,1.367 -0.126,1.515c-0.021,0.168 -0.063,0.289 -0.126,0.363c-0.063,0.073 -0.19,0.11 -0.379,0.11l-1.736,0c-1.199,0 -2.046,-0.237 -2.54,-0.71c-0.495,-0.474 -0.742,-1.089 -0.742,-1.846c0,-0.232 0.026,-0.653 0.079,-1.263c0.052,-0.61 0.121,-1.325 0.205,-2.146c0.084,-0.821 0.179,-1.72 0.284,-2.698c0.105,-0.979 0.2,-1.952 0.284,-2.92c0.084,-0.968 0.163,-1.909 0.237,-2.825c0.073,-0.915 0.131,-1.72 0.173,-2.414Z" style="fill:#cc2328;fill-rule:nonzero;"/><path d="M148.4,168c-1.178,0 -2.02,-0.231 -2.525,-0.694c-0.505,-0.463 -0.757,-1.126 -0.757,-1.989c0,-0.42 0.032,-1.141 0.095,-2.162c0.063,-1.02 0.147,-2.183 0.252,-3.487c0.105,-1.305 0.211,-2.683 0.316,-4.135c0.105,-1.451 0.21,-2.819 0.315,-4.103c0.106,-1.283 0.19,-2.409 0.253,-3.377c0.063,-0.967 0.095,-1.63 0.095,-1.988c0,-0.316 0.168,-0.473 0.505,-0.473l11.109,0c0.126,0 0.242,0.031 0.347,0.094c0.105,0.063 0.158,0.179 0.158,0.348l-0.126,1.862c-0.042,0.631 -0.216,1.141 -0.521,1.53c-0.305,0.39 -0.931,0.584 -1.878,0.584l-4.355,0l-0.316,4.45l4.482,0c0.126,0 0.242,0.032 0.347,0.095c0.105,0.063 0.158,0.179 0.158,0.347l-0.127,1.862c-0.042,0.632 -0.215,1.142 -0.52,1.531c-0.305,0.389 -0.931,0.584 -1.878,0.584l-2.746,0l-0.347,4.702l6.943,0c0.127,0 0.242,0.037 0.347,0.111c0.106,0.074 0.158,0.184 0.158,0.331l-0.126,1.862c-0.042,0.632 -0.216,1.142 -0.521,1.531c-0.305,0.389 -0.931,0.584 -1.878,0.584l-7.259,0Z" style="fill:#cc2328;fill-rule:nonzero;"/><path d="M163.329,162.382c0.883,0 1.515,0.216 1.893,0.647c0.379,0.431 0.568,1.036 0.568,1.815c0,0.337 -0.042,0.705 -0.126,1.105c-0.084,0.399 -0.237,0.773 -0.457,1.12c-0.221,0.347 -0.537,0.642 -0.947,0.884c-0.411,0.242 -0.942,0.363 -1.594,0.363c-0.947,0 -1.589,-0.248 -1.925,-0.742c-0.337,-0.495 -0.505,-1.11 -0.505,-1.846c0,-0.421 0.052,-0.831 0.158,-1.231c0.105,-0.4 0.273,-0.758 0.504,-1.073c0.232,-0.316 0.548,-0.568 0.947,-0.758c0.4,-0.189 0.895,-0.284 1.484,-0.284Zm0.694,-2.209c-0.526,0 -0.957,-0.063 -1.294,-0.189c-0.337,-0.127 -0.6,-0.321 -0.789,-0.584c-0.189,-0.263 -0.321,-0.59 -0.395,-0.979c-0.073,-0.389 -0.11,-0.836 -0.11,-1.341c0,-0.189 0.005,-0.395 0.016,-0.616c0.01,-0.22 0.031,-0.499 0.063,-0.836c0.031,-0.337 0.063,-0.757 0.095,-1.262c0.031,-0.505 0.079,-1.152 0.142,-1.941c0.063,-0.789 0.136,-1.741 0.221,-2.857c0.084,-1.115 0.178,-2.451 0.284,-4.008c0.021,-0.463 0.073,-0.736 0.157,-0.82c0.064,-0.064 0.232,-0.095 0.505,-0.095l1.862,0c1.158,0 1.984,0.226 2.478,0.678c0.494,0.453 0.742,0.984 0.742,1.594c0,0.379 -0.037,0.879 -0.111,1.499c-0.073,0.621 -0.173,1.31 -0.3,2.068c-0.126,0.757 -0.268,1.551 -0.426,2.383c-0.157,0.831 -0.315,1.651 -0.473,2.461c-0.158,0.81 -0.31,1.584 -0.458,2.32c-0.147,0.736 -0.273,1.368 -0.378,1.894c-0.043,0.252 -0.111,0.42 -0.206,0.505c-0.094,0.084 -0.257,0.126 -0.489,0.126l-1.136,0Z" style="fill:#cc2328;fill-rule:nonzero;"/></g><path d="M8.456,130.014c-2.409,0 -4.11,-0.475 -5.103,-1.426c-0.993,-0.951 -1.489,-2.356 -1.489,-4.215c0,-0.55 0.031,-1.427 0.095,-2.631c0.063,-1.204 0.158,-2.631 0.285,-4.279c0.127,-1.648 0.264,-3.444 0.412,-5.388c0.148,-1.943 0.306,-3.93 0.475,-5.958c0.212,-2.493 0.391,-4.638 0.539,-6.434c0.148,-1.796 0.264,-3.338 0.349,-4.627c0.084,-1.289 0.158,-2.366 0.222,-3.233c0.063,-0.866 0.105,-1.627 0.127,-2.282c0.021,-0.655 0.042,-1.257 0.063,-1.806c0.021,-0.549 0.032,-1.141 0.032,-1.775c0,-0.338 0.105,-0.581 0.317,-0.729c0.211,-0.148 0.422,-0.222 0.633,-0.222c1.099,0 2.303,-0.031 3.613,-0.095c1.31,-0.063 2.62,-0.137 3.93,-0.222c1.31,-0.084 2.578,-0.158 3.804,-0.222c1.225,-0.063 2.303,-0.095 3.232,-0.095c2.705,0 5.029,0.328 6.973,0.983c1.944,0.655 3.518,1.606 4.722,2.852c1.205,1.247 2.092,2.758 2.663,4.532c0.57,1.775 0.855,3.804 0.855,6.086c0,2.493 -0.327,4.891 -0.982,7.194c-0.655,2.303 -1.68,4.342 -3.074,6.117c-1.395,1.775 -3.191,3.19 -5.388,4.247c-2.198,1.056 -4.818,1.584 -7.86,1.584c-1.817,0 -3.36,-0.19 -4.628,-0.57l-0.887,11.663c-0.042,0.338 -0.127,0.581 -0.254,0.729c-0.126,0.148 -0.38,0.222 -0.76,0.222l-2.916,0Zm10.269,-36.131c-0.55,0 -1.162,0.032 -1.839,0.095c-0.676,0.064 -1.394,0.138 -2.155,0.222c-0.084,1.775 -0.19,3.93 -0.317,6.466c-0.126,2.535 -0.295,5.198 -0.507,7.987c0.634,0.169 1.257,0.285 1.87,0.348c0.613,0.064 1.173,0.095 1.68,0.095c1.479,0 2.673,-0.348 3.581,-1.046c0.909,-0.697 1.617,-1.553 2.124,-2.567c0.507,-1.014 0.845,-2.07 1.014,-3.169c0.169,-1.099 0.254,-2.05 0.254,-2.853c0,-1.817 -0.413,-3.201 -1.237,-4.151c-0.824,-0.951 -2.313,-1.427 -4.468,-1.427Z" style="fill:#cc2328;fill-rule:nonzero;"/><path d="M45.728,130.014c-2.367,0 -4.057,-0.465 -5.071,-1.395c-1.015,-0.929 -1.522,-2.26 -1.522,-3.993c0,-0.845 0.064,-2.292 0.19,-4.342c0.127,-2.049 0.296,-4.384 0.508,-7.004c0.211,-2.62 0.422,-5.388 0.633,-8.304c0.212,-2.916 0.423,-5.662 0.634,-8.24c0.212,-2.578 0.381,-4.839 0.507,-6.783c0.127,-1.943 0.191,-3.275 0.191,-3.993c0,-0.634 0.338,-0.951 1.014,-0.951l3.486,0c2.578,0 4.31,0.55 5.198,1.648c0.887,1.099 1.331,2.726 1.331,4.881c0,0.211 -0.032,0.888 -0.095,2.028c-0.064,1.141 -0.159,2.578 -0.285,4.311c-0.127,1.732 -0.265,3.666 -0.412,5.8c-0.148,2.134 -0.296,4.321 -0.444,6.56c-0.148,2.24 -0.296,4.427 -0.444,6.561c-0.148,2.134 -0.285,4.067 -0.412,5.8c-0.127,1.732 -0.232,3.18 -0.317,4.342c-0.084,1.162 -0.148,1.87 -0.19,2.123c-0.042,0.338 -0.127,0.581 -0.254,0.729c-0.126,0.148 -0.38,0.222 -0.76,0.222l-3.486,0Z" style="fill:#cc2328;fill-rule:nonzero;"/><path d="M56.947,130.014c-0.465,0 -0.697,-0.232 -0.697,-0.697l0.19,-3.423c0.042,-0.38 0.106,-0.856 0.19,-1.426c0.085,-0.571 0.275,-1.046 0.571,-1.427c0.718,-1.31 1.584,-2.725 2.598,-4.246c1.015,-1.522 2.24,-3.381 3.677,-5.579c1.437,-2.197 3.116,-4.849 5.039,-7.955c1.923,-3.106 4.152,-6.898 6.687,-11.378l-14.452,0c-0.338,0 -0.539,-0.063 -0.602,-0.19c-0.063,-0.127 -0.095,-0.359 -0.095,-0.697l0.19,-3.55c0.042,-0.549 0.116,-1.088 0.222,-1.616c0.106,-0.528 0.317,-1.004 0.634,-1.426c0.317,-0.423 0.771,-0.761 1.363,-1.014c0.591,-0.254 1.373,-0.381 2.345,-0.381l24.214,0c0.253,0 0.486,0.064 0.697,0.19c0.211,0.127 0.317,0.36 0.317,0.698l-0.253,3.423c-0.085,1.098 -0.339,2.007 -0.761,2.725c-0.127,0.211 -0.74,1.215 -1.838,3.011c-1.099,1.796 -2.494,4.067 -4.184,6.814c-1.69,2.747 -3.581,5.811 -5.673,9.191c-2.092,3.381 -4.194,6.74 -6.307,10.079l16.1,0c0.254,0 0.486,0.063 0.698,0.19c0.211,0.127 0.316,0.359 0.316,0.697l-0.253,3.74c-0.085,1.268 -0.433,2.293 -1.046,3.074c-0.613,0.782 -1.87,1.173 -3.772,1.173l-26.115,0Z" style="fill:#cc2328;fill-rule:nonzero;"/><path d="M92.063,130.014c-0.464,0 -0.697,-0.232 -0.697,-0.697l0.19,-3.423c0.043,-0.38 0.106,-0.856 0.191,-1.426c0.084,-0.571 0.274,-1.046 0.57,-1.427c0.718,-1.31 1.585,-2.725 2.599,-4.246c1.014,-1.522 2.24,-3.381 3.676,-5.579c1.437,-2.197 3.117,-4.849 5.04,-7.955c1.922,-3.106 4.151,-6.898 6.687,-11.378l-14.452,0c-0.338,0 -0.539,-0.063 -0.603,-0.19c-0.063,-0.127 -0.095,-0.359 -0.095,-0.697l0.191,-3.55c0.042,-0.549 0.116,-1.088 0.221,-1.616c0.106,-0.528 0.317,-1.004 0.634,-1.426c0.317,-0.423 0.771,-0.761 1.363,-1.014c0.592,-0.254 1.373,-0.381 2.345,-0.381l24.214,0c0.254,0 0.486,0.064 0.698,0.19c0.211,0.127 0.316,0.36 0.316,0.698l-0.253,3.423c-0.085,1.098 -0.338,2.007 -0.761,2.725c-0.127,0.211 -0.739,1.215 -1.838,3.011c-1.099,1.796 -2.493,4.067 -4.184,6.814c-1.69,2.747 -3.581,5.811 -5.673,9.191c-2.091,3.381 -4.194,6.74 -6.307,10.079l16.101,0c0.253,0 0.486,0.063 0.697,0.19c0.211,0.127 0.317,0.359 0.317,0.697l-0.254,3.74c-0.084,1.268 -0.433,2.293 -1.046,3.074c-0.612,0.782 -1.87,1.173 -3.771,1.173l-26.116,0Z" style="fill:#cc2328;fill-rule:nonzero;"/><path d="M149.239,85.009c1.056,0 1.933,0.201 2.63,0.602c0.697,0.402 1.278,0.93 1.743,1.585c0.465,0.655 0.845,1.405 1.141,2.25c0.296,0.845 0.55,1.712 0.761,2.599c1.69,6.846 3.085,12.487 4.183,16.925c1.099,4.437 1.965,8.018 2.599,10.744c0.634,2.725 1.078,4.743 1.331,6.053c0.254,1.31 0.381,2.219 0.381,2.726c0,0.591 -0.138,0.993 -0.412,1.204c-0.275,0.211 -0.708,0.317 -1.3,0.317l-3.233,0c-1.817,0 -3.264,-0.222 -4.342,-0.666c-1.077,-0.443 -1.901,-1.088 -2.472,-1.933c-0.57,-0.845 -0.982,-1.87 -1.236,-3.074c-0.253,-1.204 -0.464,-2.567 -0.634,-4.089l-11.029,0l-2.092,8.748c-0.211,0.676 -0.697,1.014 -1.458,1.014l-3.359,0c-0.676,0 -1.373,-0.074 -2.092,-0.222c-0.718,-0.148 -1.363,-0.391 -1.933,-0.729c-0.571,-0.338 -1.046,-0.771 -1.426,-1.299c-0.381,-0.528 -0.571,-1.173 -0.571,-1.934c0,-0.929 0.296,-2.451 0.888,-4.563c0.591,-2.113 1.341,-4.511 2.25,-7.195c0.908,-2.683 1.923,-5.493 3.042,-8.43c1.12,-2.937 2.208,-5.716 3.265,-8.336c1.056,-2.62 2.018,-4.923 2.884,-6.909c0.866,-1.986 1.532,-3.381 1.997,-4.183c0.338,-0.592 0.644,-0.941 0.919,-1.046c0.274,-0.106 0.792,-0.159 1.553,-0.159l6.022,0Zm-7.607,26.052l7.29,0l-2.663,-16.734l-4.627,16.734Z" style="fill:#cc2328;fill-rule:nonzero;"/></svg>